<svg width="150" height="150" viewBox="0 0 150 150" fill="none" xmlns="http://www.w3.org/2000/svg">
  <path
    d="M81.25 53.125H56.25C44.1687 53.125 34.375 43.3312 34.375 31.25C34.375 19.1687 44.1687 9.375 56.25 9.375H81.25V53.125Z"
    fill="#E64A19"/>
  <path
    d="M78.125 96.875H56.25C44.1687 96.875 34.375 87.0812 34.375 75C34.375 62.9187 44.1687 53.125 56.25 53.125H78.125V96.875Z"
    fill="#7C4DFF"/>
  <path
    d="M56.25 140.625C44.1687 140.625 34.375 130.831 34.375 118.75C34.375 106.669 44.1687 96.875 56.25 96.875H78.125V118.75C78.125 130.831 68.3312 140.625 56.25 140.625Z"
    fill="#66BB6A"/>
  <path
    d="M100 53.125H78.125V9.375H100C112.081 9.375 121.875 19.1687 121.875 31.25C121.875 43.3312 112.081 53.125 100 53.125Z"
    fill="#FF7043"/>
  <path
    d="M100 96.875C112.081 96.875 121.875 87.0812 121.875 75C121.875 62.9188 112.081 53.125 100 53.125C87.9188 53.125 78.125 62.9188 78.125 75C78.125 87.0812 87.9188 96.875 100 96.875Z"
    fill="#29B6F6"/>
</svg>
