<svg width="150" height="150" viewBox="0 0 150 150" fill="none" xmlns="http://www.w3.org/2000/svg">
  <path
    d="M18.75 31.25C18.75 24.3469 24.3469 18.75 31.25 18.75H118.75C125.653 18.75 131.25 24.3469 131.25 31.25V118.75C131.25 125.653 125.653 131.25 118.75 131.25H31.25C24.3469 131.25 18.75 125.653 18.75 118.75V31.25Z"
    fill="#E040FB"/>
  <path
    d="M28.125 28.125V121.875H121.875V28.125H28.125ZM65.675 59.9187H59.4187V73.775H65.5844C67.2937 73.775 68.6156 73.2156 69.5531 72.0969C70.4906 70.9781 70.9562 69.35 70.9562 67.2125C70.9562 64.9937 70.4781 63.2312 69.5219 61.9187C68.5656 60.6062 67.2812 59.9406 65.675 59.9187ZM76.1406 77.4656C73.5594 79.9906 69.9781 81.25 65.4 81.25H59.4187V96.875H50V52.4406H65.5844C69.9781 52.4406 73.4844 53.8062 76.0969 56.5312C78.7094 59.2562 80.0187 62.7969 80.0187 67.15C80.0187 71.5031 78.725 74.9406 76.1406 77.4656ZM103.75 72.1875L100.937 71.875C98.4375 71.875 96.875 72.8125 96.25 75V96.875H87.5V63.75H95.625L95.9375 67.1875C97.1875 64.375 99.0625 63.125 101.562 63.125C102.5 63.125 103.437 63.125 104.062 63.4375L103.75 72.1875Z"
    fill="#020F16"/>
</svg>
