<svg width="150" height="150" viewBox="0 0 150 150" fill="none" xmlns="http://www.w3.org/2000/svg">
  <path
    d="M131.875 69.0625L80.9375 18.125C79.375 16.5625 77.1875 15.625 75 15.625C72.8125 15.625 70.625 16.5625 69.0625 18.125L58.125 29.0625L70.9375 41.875C72.1875 41.25 73.4375 40.9375 75 40.9375C80.3125 40.9375 84.375 45 84.375 50.3125C84.375 51.875 84.0625 53.125 83.4375 54.375L95.9375 66.875C97.1875 66.25 98.4375 65.9375 100 65.9375C105.312 65.9375 109.375 70 109.375 75.3125C109.375 80.625 105.312 84.6875 100 84.6875C94.6875 84.6875 90.625 80.625 90.625 75.3125C90.625 73.75 90.9375 72.5 91.5625 71.25L79.0625 58.75C78.75 58.75 78.4375 59.0625 78.125 59.0625V91.5625C81.875 92.8125 84.375 96.25 84.375 100.312C84.375 105.625 80.3125 109.687 75 109.687C69.6875 109.687 65.625 105.625 65.625 100.312C65.625 96.25 68.125 92.8125 71.875 91.5625V58.75C68.125 57.5 65.625 54.0625 65.625 50C65.625 48.4375 65.9375 47.1875 66.5625 45.9375L53.75 33.125L18.125 69.0625C16.5625 70.625 15.625 72.8125 15.625 75C15.625 77.1875 16.5625 79.375 18.125 80.9375L69.0625 131.875C70.625 133.438 72.8125 134.375 75 134.375C77.1875 134.375 79.375 133.438 80.9375 131.875L131.875 80.9375C133.438 79.375 134.375 77.1875 134.375 75C134.375 72.8125 133.438 70.625 131.875 69.0625Z"
    fill="#F4511E"/>
</svg>
