<svg width="150" height="150" viewBox="0 0 150 150" fill="none" xmlns="http://www.w3.org/2000/svg">
  <path
    d="M148.522 62.0217C148.116 61.7029 144.319 58.8748 136.309 58.8748C134.194 58.8842 132.084 59.0623 130 59.4092C128.45 48.9279 119.941 44.0029 119.547 43.7748L117.397 42.5498L115.981 44.5623C114.209 47.2686 112.644 50.0623 111.884 53.1967C110.45 59.1811 111.322 64.7998 114.403 69.6029C110.678 71.6498 104.331 71.8311 103.125 71.8748H4.94371C2.36246 71.8779 0.268711 73.9373 0.253086 76.4811C0.137461 85.0217 1.35621 93.8342 4.33434 101.853C7.73746 110.659 12.8031 117.147 19.3906 121.115C26.7718 125.575 38.7656 128.125 52.3625 128.125C58.5031 128.144 64.6343 127.597 70.6718 126.487C79.0656 124.965 87.1437 122.072 94.5687 117.925C100.687 114.428 106.194 109.981 110.878 104.753C118.706 96.0092 123.369 86.2748 126.837 77.6217C127.303 77.6217 127.769 77.6217 128.219 77.6217C136.791 77.6217 142.059 74.2373 144.966 71.4029C146.897 69.5936 148.406 67.3904 149.384 64.9498L150 63.1748L148.522 62.0217Z"
    fill="#2395EC"/>
  <path
    d="M25 68.75H15.625C13.9 68.75 12.5 67.35 12.5 65.625V56.25C12.5 54.525 13.9 53.125 15.625 53.125H25C26.725 53.125 28.125 54.525 28.125 56.25V65.625C28.125 67.35 26.725 68.75 25 68.75Z"
    fill="#2395EC"/>
  <path
    d="M43.75 68.75H34.375C32.65 68.75 31.25 67.35 31.25 65.625V56.25C31.25 54.525 32.65 53.125 34.375 53.125H43.75C45.475 53.125 46.875 54.525 46.875 56.25V65.625C46.875 67.35 45.475 68.75 43.75 68.75Z"
    fill="#2395EC"/>
  <path
    d="M62.5 68.75H53.125C51.4 68.75 50 67.35 50 65.625V56.25C50 54.525 51.4 53.125 53.125 53.125H62.5C64.225 53.125 65.625 54.525 65.625 56.25V65.625C65.625 67.35 64.225 68.75 62.5 68.75Z"
    fill="#2395EC"/>
  <path
    d="M81.25 68.75H71.875C70.15 68.75 68.75 67.35 68.75 65.625V56.25C68.75 54.525 70.15 53.125 71.875 53.125H81.25C82.975 53.125 84.375 54.525 84.375 56.25V65.625C84.375 67.35 82.975 68.75 81.25 68.75Z"
    fill="#2395EC"/>
  <path
    d="M43.75 50H34.375C32.65 50 31.25 48.6 31.25 46.875V37.5C31.25 35.775 32.65 34.375 34.375 34.375H43.75C45.475 34.375 46.875 35.775 46.875 37.5V46.875C46.875 48.6 45.475 50 43.75 50Z"
    fill="#2395EC"/>
  <path
    d="M62.5 50H53.125C51.4 50 50 48.6 50 46.875V37.5C50 35.775 51.4 34.375 53.125 34.375H62.5C64.225 34.375 65.625 35.775 65.625 37.5V46.875C65.625 48.6 64.225 50 62.5 50Z"
    fill="#2395EC"/>
  <path
    d="M81.25 50H71.875C70.15 50 68.75 48.6 68.75 46.875V37.5C68.75 35.775 70.15 34.375 71.875 34.375H81.25C82.975 34.375 84.375 35.775 84.375 37.5V46.875C84.375 48.6 82.975 50 81.25 50Z"
    fill="#2395EC"/>
  <path
    d="M81.25 31.25H71.875C70.15 31.25 68.75 29.85 68.75 28.125V18.75C68.75 17.025 70.15 15.625 71.875 15.625H81.25C82.975 15.625 84.375 17.025 84.375 18.75V28.125C84.375 29.85 82.975 31.25 81.25 31.25Z"
    fill="#2395EC"/>
  <path
    d="M100 68.75H90.625C88.9 68.75 87.5 67.35 87.5 65.625V56.25C87.5 54.525 88.9 53.125 90.625 53.125H100C101.725 53.125 103.125 54.525 103.125 56.25V65.625C103.125 67.35 101.725 68.75 100 68.75Z"
    fill="#2395EC"/>
</svg>
