<svg width="150" height="150" viewBox="0 0 150 150" fill="none" xmlns="http://www.w3.org/2000/svg">
  <path
    d="M47.5 104.688C45.9375 105.625 21.875 120.938 21.875 121.875C21.875 123.125 21.875 123.125 21.875 123.125L26.25 134.375H123.75C123.75 134.375 128.438 119.375 128.125 115.625C128.125 113.75 112.5 103.438 112.5 103.438C112.5 103.438 124.688 91.2501 125 64.6876C125 62.1876 125 59.6876 124.688 57.1876C122.5 27.1876 103.438 16.5626 83.4375 15.6251C63.125 15.0001 51.875 24.3751 51.875 24.3751C51.875 24.3751 39.0625 28.7501 37.8125 39.0626C37.8125 39.0626 27.8125 40.9376 33.125 61.2501C29.0625 64.3751 28.125 68.7501 28.125 71.8751C28.125 75.9376 29.375 80.6251 31.875 83.4376C37.1875 89.0626 41.5625 87.8126 41.5625 87.8126C41.5625 87.8126 43.4375 97.8126 47.5 104.688Z"
    fill="#FFE0B2"/>
  <path
    d="M115 115.313C114.375 111.25 112.5 109.375 108.437 109.375H108.125H107.812C106.562 109.687 104.687 110.312 99.375 114.062L96.25 116.25C95.625 115.938 94.6875 115.625 93.75 115.625C92.1875 115.625 90.9375 116.25 89.6875 117.187L86.5625 115.625L81.25 112.812C78.4375 111.562 75.625 110.625 73.4375 110.625C71.875 110.625 70.625 110.938 69.375 111.563C67.8125 112.813 67.1875 114.687 67.5 117.187C67.5 118.437 67.8125 120 67.8125 121.25C68.4375 127.812 68.75 132.5 75 132.812C75.3125 132.812 75.625 132.812 75.9375 132.812C79.375 132.812 83.4375 131.562 87.1875 128.75L90 126.875C90.9375 127.5 92.1875 128.125 93.4375 128.125C95 128.125 96.25 127.5 97.1875 126.875L101.562 127.813C103.437 128.125 105 128.437 106.562 128.437H107.812C109.375 128.437 110.937 128.437 112.5 127.5C114.375 126.562 115.312 124.375 115.312 120.938C115.312 119.375 115 117.812 115 116.562V115.313Z"
    fill="#F44336"/>
  <path
    d="M67.8124 121.563C67.8124 120.313 67.4999 119.062 67.4999 117.5C67.1874 115.625 67.4999 114.375 68.1249 113.125C52.4999 112.813 47.4999 104.688 47.4999 104.688C47.4999 104.688 46.5624 109.688 50.9374 115.313C57.4999 123.125 67.4999 124.063 67.4999 124.063H68.1249C68.1249 123.438 68.1249 122.5 67.8124 121.563Z"
    fill="white"/>
  <path
    d="M71.5625 134.375L69.375 130C69.0625 129.062 68.75 128.125 68.4375 126.562L68.125 124.375L65.9375 124.062C63.125 123.437 56.25 121.562 51.25 115.625C49.6875 113.75 48.75 111.562 48.125 109.375L46.875 105.312L43.4375 107.5C37.1875 111.563 26.875 118.125 23.4375 120.937L21.5625 122.5L26.25 134.375H71.5625Z"
    fill="#546E7A"/>
  <path
    d="M38.125 134.375H71.5625L69.375 130C69.0625 129.062 68.75 128.125 68.4375 126.563L68.125 124.375L65.9375 124.063C63.125 123.438 56.25 121.563 51.25 115.625C50.9375 115.313 50.625 114.687 50.3125 114.375L34.375 125L38.125 134.375Z"
    fill="#455A64"/>
  <path
    d="M127.188 114.063C125.313 112.188 119.687 108.125 117.5 106.562L115.313 105C114.688 105.625 113.437 107.188 111.25 108.75L113.437 110.938C114.375 111.875 115 113.438 115.313 115V115.938C115.625 117.188 115.625 118.75 115.625 120.313C115.625 125.625 113.75 126.562 112.812 126.875C112.187 127.188 111.25 127.5 110.312 127.5L110.625 133.75H123.438L124.063 131.562C125.625 126.562 127.5 119.375 127.813 116.25V114.688L127.188 114.063Z"
    fill="#546E7A"/>
  <path
    d="M123.75 134.375L124.375 132.187C125.312 129.687 125.937 126.25 126.875 123.438L115.313 117.188C115.313 118.125 115.625 119.375 115.625 120.625C115.625 125.937 113.75 126.875 112.812 127.188C112.187 127.5 111.25 127.813 110.312 127.813L110.625 134.063L123.75 134.375Z"
    fill="#455A64"/>
  <path
    d="M32.1875 61.875L32.5 61.5625C34.0625 60.3125 36.25 59.375 38.125 59.375C40 59.375 40.9375 60 41.875 60.3125C45.9375 62.5 46.875 66.5625 47.1875 69.375V69.6875V70C49.0625 69.375 50.9375 68.75 51.5625 68.4375C51.5625 68.125 51.5625 67.5 51.25 66.5625C50.9375 65.3125 50.625 63.75 50 62.1875C48.75 58.75 49.0625 54.375 50.9375 48.75L51.25 48.125C51.5625 46.875 52.1875 45.625 52.1875 44.6875C52.1875 43.75 52.5 42.8125 52.5 42.5C52.5 41.5625 52.1875 40.9375 51.875 40L51.25 38.4375L52.1875 36.875C55 32.1875 65.3125 16.5625 86.25 16.5625C86.875 16.5625 87.5 16.5625 88.4375 16.5625H87.8125C86.5625 15.9375 85 15.625 83.4375 15.625C82.8125 15.625 81.875 15.625 81.25 15.625C64.375 15.625 54.0625 22.8125 52.1875 24.0625L51.875 24.375L51.5625 24.6875C49.6875 25.3125 40 29.375 38.125 37.8125L37.5 38.75L36.25 39.375C35 40 34.0625 40.9375 33.4375 42.1875C31.25 45.9375 30.9375 51.5625 32.5 59.375L32.8125 60.9375L31.5625 62.5L31.25 62.8125C31.5625 62.5 31.875 62.1875 32.1875 61.875Z"
    fill="#616161"/>
  <path
    d="M87.5 128.125H106.25V134.375H87.5V128.125ZM44.375 70C44.0625 67.1875 43.125 64.6875 40.9375 63.4375C40 63.125 39.375 62.8125 38.4375 62.8125C36.875 62.8125 35 63.4375 33.4375 65.625L31.25 59.375C34.0625 57.8125 36.5625 56.875 39.0625 56.875C40.625 56.875 42.1875 57.1875 43.75 57.8125C45 58.4375 46.25 59.375 47.1875 60.3125C46.5625 55.9375 47.5 51.25 48.75 47.5C49.375 45.9375 49.6875 44.375 50 43.4375C50.3125 41.5625 50 41.25 49.375 40.3125C43.4375 40.9375 38.4375 42.5 38.4375 42.5L36.875 36.5625C37.1875 36.5625 43.4375 34.6875 50.625 34.0625L52.8125 33.75L53.75 35.625C53.75 35.625 54.0625 35.9375 54.0625 36.25C55 37.1875 56.25 39.0625 56.5625 42.1875C56.5625 42.8125 56.5625 44.0625 56.25 45C55.9375 46.5625 55.3125 47.8125 55 49.6875C53.75 53.4375 52.8125 57.8125 54.0625 60.9375C54.6875 62.8125 55 64.6875 55.3125 65.9375C55.625 67.1875 55.9375 70 54.6875 70.9375C53.4375 71.875 46.25 74.0625 46.25 74.0625C46.25 74.0625 44.6875 72.8125 44.375 70Z"
    fill="#263238"/>
  <path
    d="M54.6875 39.3751L49.0625 36.8751C49.0625 36.5626 60.625 11.2501 89.6875 13.1251L89.375 19.3751C64.375 18.1251 54.6875 39.3751 54.6875 39.3751Z"
    fill="#263238"/>
  <path
    d="M68.7499 113.125C52.8124 113.125 47.4999 104.688 47.4999 104.688C47.4999 104.688 46.5624 109.688 50.9374 115.313C57.4999 123.125 67.4999 124.063 67.4999 124.063"
    fill="white"/>
  <path
    d="M67.1874 127.187C66.8749 127.187 55.9374 125.937 48.7499 117.187C43.4374 110.312 44.3749 104.687 44.6874 104.062L46.2499 95.9375L50.6249 103.125C50.9374 103.437 55.3124 110 69.0624 110V116.25C62.4999 116.25 57.4999 115 53.7499 113.125C53.7499 113.125 53.7499 113.125 53.7499 113.437C59.3749 120 67.8124 120.937 68.1249 120.937L67.1874 127.187ZM108.437 131.25C108.125 131.25 107.812 131.25 107.5 131.25C101.875 131.25 96.5624 129.375 96.2499 129.375L98.4374 123.437C98.4374 123.437 102.812 125 107.187 125H107.5C109.062 125 110.625 125 111.562 124.688C112.5 124.062 112.5 121.875 112.5 120.625C112.5 119.375 112.187 117.812 112.187 116.562V115.625C111.875 113.125 110.937 112.188 108.437 112.188C106.562 112.5 100.625 116.875 98.4374 118.438L96.8749 119.687L93.1249 114.687L94.3749 113.75C100.312 109.375 105 106.25 108.125 106.25C113.75 106.25 117.187 109.375 118.125 115V115.937C118.437 117.187 118.437 119.062 118.75 120.625C118.75 125.312 117.5 128.75 114.375 130C112.187 131.25 110.312 131.25 108.437 131.25Z"
    fill="#263238"/>
  <path
    d="M75.9375 136.25C75.625 136.25 75.3125 136.25 75 136.25C65.9375 135.625 65.3125 128.438 65 121.875C65 120.625 64.6875 119.375 64.6875 118.125C64.0625 113.125 66.25 110.625 67.8125 109.375C71.875 106.563 78.125 107.813 82.8125 110L92.1875 115L89.375 120.625L80 115.625C76.25 113.75 72.5 113.438 71.5625 114.375C70.9375 115 70.9375 116.25 70.9375 117.188C71.25 118.438 71.25 120 71.25 121.25C71.875 128.75 72.5 129.688 75.625 130C82.1875 130.625 88.75 124.375 88.75 124.063L93.125 128.438C92.5 129.062 85 136.25 75.9375 136.25ZM65.625 48.125C65.625 48.125 65 50 63.75 50C63.125 50 62.5 48.75 62.5 47.5C62.5 43.75 65 39.0625 67.5 36.875C69.375 35.3125 71.875 34.375 74.6875 34.375C75.9375 34.375 77.5 34.375 78.75 35C80.3125 35.625 81.25 36.875 81.25 39.375C81.25 39.375 81.25 40.625 77.1875 40.625C74.6875 40.625 71.5625 40.9375 70.3125 42.1875C69.0625 43.4375 67.1875 44.6875 65.625 48.125ZM82.5 65.625C80.9375 65.625 79.0625 65.3125 77.5 65C75.625 64.6875 74.6875 62.8125 75.3125 61.25L75.9375 60.3125C76.25 59.6875 76.875 59.375 77.5 59.375C77.8125 59.375 78.125 59.375 78.4375 59.375C80.9375 60 84.6875 60 85.9375 60C84.375 54.0625 84.6875 49.6875 85.625 49.6875C86.5625 49.6875 89.0625 56.875 90.3125 58.4375C91.5625 60 91.25 61.875 90 63.125C87.8125 65 85.3125 65.625 82.5 65.625ZM113.75 65.625C113.125 65.625 112.812 65.625 112.188 65.625C110.312 65.3125 109.375 64.0625 109.375 62.1875C109.375 62.1875 109.687 59.375 111.25 59.375C112.5 59.375 114.062 60 114.688 60C114.062 56.25 113.125 50 114.062 50C115 50 117.188 57.5 121.562 60.3125C122.812 61.25 122.812 63.125 120.937 64.375C118.437 65.3125 116.25 65.625 113.75 65.625ZM119.687 45.3125C119.062 42.8125 116.25 40.625 113.125 39.6875C109.062 38.75 106.25 40.625 106.25 40.625C106.25 37.8125 108.437 35.625 109.375 35.3125C110.625 34.6875 111.25 34.375 112.5 34.375C119.062 34.375 121.562 38.4375 123.75 42.5L119.687 45.3125Z"
    fill="#263238"/>
  <path
    d="M99.6874 84.375C99.3749 84.375 98.7499 84.375 98.4374 84.375C96.2499 84.375 94.3749 83.75 93.1249 82.1875C90.6249 79.375 90.3125 75.625 91.25 75C92.1875 74.375 92.8125 76.5625 95.9375 77.5C95.9375 77.5 98.125 77.8125 98.75 77.8125C99.375 77.8125 99.6874 77.8125 100.312 77.8125C104.375 77.8125 107.812 76.875 109.062 75.9375C109.375 75.625 109.375 75 109.375 75C109.375 75 109.375 74.0625 105.312 70.3125C101.25 66.5625 99.9999 61.875 99.9999 57.8125C99.9999 53.125 100.625 50 101.25 50C102.187 50 103.125 60 109.687 65.625C114.375 69.6875 115.625 72.5 115.625 75.3125C115.625 78.125 114.062 79.6875 113.125 80.625C109.687 83.75 104.062 84.375 99.6874 84.375ZM98.1249 93.75C88.4374 93.4375 83.4375 87.5 83.4375 87.5C83.4375 87.5 94.3749 88.4375 101.562 88.4375V93.75H98.1249ZM105 93.75V90.9375V88.125C105.625 87.8125 110.625 88.4375 116.25 86.25C115 92.8125 105.312 93.75 105 93.75ZM90.9375 103.125C84.0625 103.125 80.625 101.25 78.125 93.125C78.125 93.125 77.8125 92.5 78.75 92.1875C79.6875 91.875 80 92.5 80 92.5C81.25 95.9375 86.5624 96.875 93.1249 96.875C93.4374 96.875 93.75 96.875 94.0625 96.875C97.1875 96.875 103.437 96.875 103.437 96.875C103.437 96.875 102.187 103.125 95.625 103.125C94.6875 103.125 91.5625 103.125 90.9375 103.125Z"
    fill="#263238"/>
  <path
    d="M90.625 115.625C80.625 115.625 72.8125 112.5 64.375 103.437C59.6875 98.4375 59.6875 91.875 60.3125 91.25C60.9375 90.625 61.875 95 65.625 99.0625C73.125 107.188 83.75 109.688 92.8125 109.063C104.688 108.125 109.688 101.25 110.625 100.625L115.938 104.375C115.625 104.688 108.438 114.063 93.4375 115.313C92.1875 115.625 91.5625 115.625 90.625 115.625ZM41.875 90.625L41.5625 87.5L41.25 84.375C41.25 84.375 41.875 84.0625 43.125 83.125C44.0625 82.5 45 82.5 45.9375 83.125L47.5 84.375C48.4375 85.3125 48.4375 86.875 47.5 87.8125C44.6875 90.3125 42.1875 90.625 41.875 90.625ZM40.625 71.875L45.625 73.75C45.3125 72.5 43.75 66.875 39.375 65.625C38.125 65.3125 35.9375 66.25 35.625 68.4375C35.625 68.4375 35.625 69.0625 35.625 69.375V69.6875C35.9375 75 40.625 78.125 40.625 78.125V71.875Z"
    fill="#263238"/>
  <path
    d="M93.75 131.25C88.4375 131.25 84.375 127.188 84.375 121.875C84.375 116.562 88.4375 112.5 93.75 112.5C99.0625 112.5 103.125 116.562 103.125 121.875C103.125 127.188 99.0625 131.25 93.75 131.25ZM93.75 118.75C92.1875 118.75 90.625 120 90.625 121.875C90.625 123.75 91.875 125 93.75 125C95.625 125 96.875 123.75 96.875 121.875C96.875 120 95.625 118.75 93.75 118.75Z"
    fill="#263238"/>
  <path
    d="M123.75 137.5H26.25C25 137.5 23.75 136.875 23.4375 135.625L19.0625 124.687C18.75 123.75 18.75 123.437 18.75 122.812V121.562C19.0625 118.437 36.5625 107.5 43.4375 103.437C41.25 98.7498 39.6875 93.7498 39.0625 90.6248C36.5625 90.3123 33.4375 89.0623 29.6875 85.3123C26.25 81.8748 25 75.9373 25 71.8748C25 69.0623 25.625 64.3748 29.375 60.3123C27.5 51.8748 27.8125 45.3123 30.625 40.9373C31.875 38.7498 33.4375 37.8123 34.6875 36.8748C37.1875 27.1873 47.5 22.8123 50 21.5623C52.5 19.6873 64.0625 11.8748 83.4375 12.4998C109.688 13.4373 125.938 29.6873 127.813 56.8748C128.125 59.3748 128.125 61.8748 128.125 64.3748C128.125 84.6873 120.938 97.1873 117.188 102.187C131.25 111.875 131.25 113.437 131.25 115C131.562 119.062 127.812 131.25 126.562 135C126.25 136.562 125 137.5 123.75 137.5ZM28.4375 131.25H121.25C123.125 125.312 124.688 119.062 125 116.562C123.125 114.687 116.563 109.687 110.625 105.937C110 105.312 109.375 104.687 109.375 103.75C109.375 102.812 109.688 101.875 110.312 101.25C110.312 101.25 121.562 89.6873 121.875 64.6873C121.875 62.4998 121.875 59.9998 121.563 57.4998C119.375 24.9998 96.5625 19.3748 83.125 18.7498C64.375 18.1248 53.75 26.5623 53.4375 26.8748C53.125 27.1873 52.8125 27.1873 52.5 27.4998C52.5 27.4998 41.5625 31.2498 40.625 39.6873C40.3125 40.9373 39.375 42.1873 38.125 42.4998C35.9375 43.1248 32.5 47.8123 35.9375 60.9373C36.25 62.1873 35.9375 63.4373 35 64.0623C31.875 66.5623 31.5625 70.3123 31.5625 72.1873C31.5625 75.9373 32.8125 79.6873 34.6875 81.5623C38.4375 85.6248 41.25 84.9998 41.25 84.9998C42.1875 84.6873 43.125 84.9998 43.75 85.3123C44.375 85.9373 45 86.5623 45 87.4998C45 87.4998 46.5625 97.1873 50.625 103.437C50.9375 104.062 51.25 105 50.9375 105.937C50.625 106.875 50.3125 107.5 49.375 107.812C47.1875 109.062 29.6875 120.312 25.3125 123.437L28.4375 131.25Z"
    fill="#263238"/>
</svg>
