<svg width="150" height="150" viewBox="0 0 150 150" fill="none" xmlns="http://www.w3.org/2000/svg">
  <path d="M134.375 109.725V41.6751L75 7.64697L15.625 41.6751V109.725L75 143.75L134.375 109.725Z"
    fill="#43A047"/>
  <path
    d="M101.562 40.6249C97.2469 40.6249 93.75 44.1218 93.75 48.4374V83.6749L59.325 45.1655L58.9156 44.6905C55.0281 40.4311 50.5844 40.6249 48.4375 40.6249C44.1219 40.6249 40.625 44.1218 40.625 48.4374V101.562C40.625 105.878 44.1219 109.375 48.4375 109.375C52.7531 109.375 56.25 105.878 56.25 101.562V66.0655L91.4938 105.525L91.8375 105.969C95.6875 109.791 100.922 109.375 101.562 109.375C105.878 109.375 109.375 105.878 109.375 101.562V48.4374C109.375 44.1218 105.878 40.6249 101.562 40.6249Z"
    fill="white"/>
</svg>
