<svg width="150" height="150" viewBox="0 0 150 150" fill="none" xmlns="http://www.w3.org/2000/svg">
  <path
    d="M11.2157 109.528C9.80011 111.834 8.20948 114.513 6.85948 116.644C5.65011 118.684 6.30011 121.316 8.31886 122.563L36.6407 139.975C38.6876 141.238 41.372 140.603 42.6376 138.559C42.6501 138.538 42.6626 138.519 42.6751 138.497C43.8095 136.603 45.2689 134.144 46.8564 131.509C58.0751 113.009 69.3595 115.272 89.7095 124.981L117.791 138.322C119.963 139.356 122.563 138.434 123.597 136.263C123.616 136.225 123.634 136.184 123.65 136.147L137.134 105.678C138.088 103.503 137.119 100.966 134.956 99.9751C129.031 97.1907 117.244 91.6407 106.634 86.5251C68.4657 68.0001 36.0282 69.197 11.2157 109.528Z"
    fill="url(#paint0_linear_100_1063)"/>
  <path
    d="M138.787 37.3998C140.203 35.0967 141.791 32.4217 143.141 30.2935C144.35 28.256 143.7 25.6248 141.681 24.381L113.378 6.99354C111.384 5.65291 108.678 6.17791 107.334 8.17166C107.278 8.25604 107.225 8.34041 107.175 8.42791C106.044 10.3185 104.584 12.7748 102.994 15.406C91.7811 33.881 80.503 31.6217 60.1718 21.9279L32.1968 8.66854C30.0249 7.63729 27.428 8.55916 26.3936 10.7248C26.378 10.7623 26.3593 10.7998 26.3405 10.8404L12.8655 41.2717C11.9124 43.4435 12.8811 45.9779 15.0436 46.9654C20.9655 49.7467 32.7436 55.2904 43.3468 60.3998C81.5749 78.8717 113.991 77.6342 138.787 37.3998Z"
    fill="url(#paint1_linear_100_1063)"/>
  <defs>
    <linearGradient id="paint0_linear_100_1063" x1="6.25011" y1="107.813" x2="137.5" y2="107.813"
      gradientUnits="userSpaceOnUse">
      <stop stop-color="#2684FF"/>
      <stop offset="0.28" stop-color="#1F7BF6"/>
      <stop offset="0.742" stop-color="#0C62DD"/>
      <stop offset="0.994" stop-color="#0052CC"/>
    </linearGradient>
    <linearGradient id="paint1_linear_100_1063" x1="12.4999" y1="39.0623" x2="143.75" y2="39.0623"
      gradientUnits="userSpaceOnUse">
      <stop stop-color="#0052CC"/>
      <stop offset="0.044" stop-color="#0255CF"/>
      <stop offset="0.665" stop-color="#1C77F2"/>
      <stop offset="1" stop-color="#2684FF"/>
    </linearGradient>
  </defs>
</svg>
