<svg width="150" height="150" viewBox="0 0 150 150" fill="none" xmlns="http://www.w3.org/2000/svg">
  <path fill-rule="evenodd" clip-rule="evenodd"
    d="M36.1032 34.6842C39.9532 37.8123 41.397 37.5748 48.6282 37.0904L116.791 32.9967C118.238 32.9967 117.034 31.556 116.553 31.3154L105.234 23.131C103.066 21.4467 100.175 19.5185 94.6376 19.9998L28.6376 24.8123C26.2313 25.0498 25.7501 26.2529 26.7095 27.2185L36.1032 34.6842Z"
    fill="white"/>
  <path fill-rule="evenodd" clip-rule="evenodd"
    d="M40.1938 50.5688V122.288C40.1938 126.141 42.1188 127.584 46.4563 127.347L121.366 123.013C125.703 122.775 126.188 120.122 126.188 116.991V45.7532C126.188 42.6282 124.984 40.9407 122.331 41.1813L44.0501 45.7532C41.1595 45.9938 40.1938 47.4407 40.1938 50.5688Z"
    fill="white"/>
  <path fill-rule="evenodd" clip-rule="evenodd"
    d="M36.1031 34.6845C39.9531 37.8126 41.3969 37.5751 48.6281 37.0907L116.791 32.997C118.238 32.997 117.034 31.5564 116.553 31.3157L105.234 23.1314C103.066 21.447 100.175 19.5189 94.6375 20.0001L28.6375 24.8126C26.2312 25.0501 25.75 26.2532 26.7094 27.2189L36.1031 34.6845ZM40.1938 50.5689V122.288C40.1938 126.141 42.1187 127.584 46.4563 127.347L121.366 123.013C125.703 122.775 126.188 120.122 126.188 116.991V45.7532C126.188 42.6282 124.984 40.9407 122.331 41.1814L44.05 45.7532C41.1594 45.9939 40.1938 47.4407 40.1938 50.5689ZM114.144 54.4157C114.625 56.5845 114.144 58.7501 111.972 58.9939L108.362 59.7126V112.659C105.228 114.344 102.338 115.306 99.9313 115.306C96.075 115.306 95.1094 114.103 92.2219 110.494L68.6125 73.4314V109.291L76.0844 110.975C76.0844 110.975 76.0844 115.306 70.0562 115.306L53.4406 116.269C52.9594 115.306 53.4406 112.9 55.125 112.419L59.4625 111.216V63.8064L53.4406 63.3251C52.9562 61.1564 54.1594 58.0314 57.5344 57.7876L75.3594 56.5845L99.9281 94.1314V60.9157L93.6625 60.197C93.1813 57.547 95.1062 55.622 97.5156 55.3845L114.144 54.4157ZM23.0906 18.3189L91.7406 13.2626C100.172 12.5407 102.341 13.0251 107.637 16.872L129.553 32.2751C133.169 34.9251 134.375 35.647 134.375 38.5314V123.006C134.375 128.3 132.447 131.431 125.703 131.909L45.9781 136.725C40.9156 136.966 38.5063 136.244 35.8563 132.875L19.7188 111.938C16.8281 108.084 15.625 105.2 15.625 101.828V26.7376C15.625 22.4095 17.5531 18.797 23.0906 18.3189Z"
    fill="#424242"/>
</svg>
