<svg width="150" height="150" viewBox="0 0 150 150" fill="none" xmlns="http://www.w3.org/2000/svg">
  <path
    d="M137.444 73.8594C137.659 60.5437 134.659 44.7094 128.409 26.1313L123.509 11.5625L116.853 25.4156C116.497 26.1563 116.091 26.8813 115.666 27.5969C104.731 18.2094 90.5437 12.5 75 12.5C40.4812 12.5 12.5 40.4812 12.5 75C12.5 109.519 40.4812 137.5 75 137.5C109.519 137.5 137.5 109.519 137.5 75C137.5 74.6156 137.45 74.2437 137.444 73.8594Z"
    fill="#8BC34A"/>
  <path
    d="M123.078 101.744C113.319 115.187 96.0438 115.909 79.7844 115.625H58.5938H52.5375C66.375 110.647 74.6094 109.462 83.0187 105C98.8562 96.6719 114.513 78.45 117.772 59.4937C111.741 77.7312 93.4625 93.4 76.8062 99.7719C65.3937 104.125 44.7813 108.35 44.7813 108.35L43.9469 107.897C29.9156 100.837 29.4906 69.4187 55 59.275C66.1688 54.8281 76.8531 57.2719 88.9188 54.2969C101.8 51.1344 116.7 41.1469 122.763 28.125C129.55 48.9594 137.719 81.5812 123.078 101.744ZM48.9625 120.141C48.0813 121.234 46.7344 121.875 45.3281 121.875C42.7563 121.875 40.6563 119.759 40.6563 117.187C40.6563 114.616 42.7719 112.5 45.3281 112.5C46.3938 112.5 47.4438 112.869 48.2688 113.55C50.2688 115.172 50.5813 118.141 48.9625 120.141Z"
    fill="white"/>
</svg>
