<svg role="img" viewBox="0 0 100 100" xmlns="http://www.w3.org/2000/svg"
  id="Langchain--Streamline-Simple-Icons" height="100" width="100">
  <desc>
    Langchain Streamline Icon: https://streamlinehq.com
  </desc>
  <title>LangChain</title>
  <path
    d="M25.41166666666667 24.656250000000004C11.399583333333334 24.656250000000004 0 36.02583333333334 0 50s11.400000000000002 25.34375 25.41166666666667 25.34375h49.17666666666667C88.60041666666667 75.34375 100 63.97416666666667 100 50s-11.400000000000002 -25.34375 -25.41166666666667 -25.34375ZM24.905833333333337 32.712500000000006c2.0541666666666667 0.051666666666666666 4.25 1.04 5.304166666666666 2.595 1.5304166666666668 1.9133333333333336 1.9908333333333335 4.445 3.726666666666667 6.221666666666668 2.3350000000000004 2.549166666666667 4.995833333333334 4.793750000000001 7.150416666666667 7.508333333333334 2.0383333333333336 2.480833333333334 3.494166666666667 5.390416666666668 4.765000000000001 8.322916666666668 0.5183333333333333 0.9729166666666668 0.52375 2.1675 1.2916666666666667 2.9987500000000002 0.3783333333333334 0.5016666666666667 2.2275 1.8679166666666667 1.8262500000000002 2.3520833333333333 0.23125 0.5016666666666667 1.959166666666667 1.1916666666666667 1.3595833333333334 1.6779166666666667 -0.81 0.16666666666666669 -1.7204166666666667 0.19833333333333336 -2.3400000000000003 -0.4475 -0.22875 0.525 -0.7625000000000001 0.24833333333333335 -1.1745833333333333 0.18000000000000002a16.666666666666668 16.666666666666668 0 0 0 -0.10416666666666669 0.3066666666666667c-1.37 0.09125 -2.3975000000000004 -1.3025 -3.0500000000000003 -2.3541666666666665 -1.2962500000000001 -0.7000000000000001 -2.7675 -1.1258333333333335 -4.091666666666667 -1.8583333333333334 -0.07583333333333334 1.20625 0.18833333333333332 2.7020833333333334 -0.9625000000000001 3.480416666666667 -0.05833333333333334 2.31875 3.515 0.2733333333333334 3.8425000000000002 2.001666666666667 -0.25416666666666665 0.02791666666666667 -0.5358333333333334 -0.03958333333333334 -0.7391666666666667 0.15541666666666668 -0.9329166666666667 0.905 -2.002083333333333 -0.6854166666666668 -3.077083333333334 -0.02916666666666667 -1.4433333333333334 0.725 -1.586666666666667 1.3170833333333334 -3.3733333333333335 1.4666666666666668 -0.09875 -0.14958333333333335 -0.059583333333333335 -0.2466666666666667 0.024583333333333336 -0.3379166666666667 0.5029166666666667 -0.5829166666666666 0.5395833333333334 -1.2691666666666668 1.3983333333333334 -1.5179166666666668 -0.8841666666666668 -0.13916666666666666 -1.6245833333333335 0.34708333333333335 -2.3691666666666666 0.7320833333333334 -0.9679166666666668 0.39583333333333337 -0.9600000000000001 -0.8920833333333335 -2.4491666666666667 0.06833333333333334 -0.16500000000000004 -0.13416666666666668 -0.08666666666666667 -0.25625000000000003 0.007500000000000001 -0.36000000000000004 0.3783333333333334 -0.46125000000000005 0.8758333333333334 -0.5291666666666667 1.4375 -0.5033333333333334 -2.7625 -1.5358333333333334 -4.062916666666667 1.8779166666666667 -5.338750000000001 0.18000000000000002 -0.38333333333333336 0.10125 -0.5270833333333333 0.44500000000000006 -0.76875 0.6883333333333335 -0.20833333333333337 -0.22833333333333336 -0.051250000000000004 -0.505 -0.04125000000000001 -0.77375 -0.24916666666666668 -0.11666666666666668 -0.5650000000000001 -0.17083333333333336 -0.4912500000000001 -0.5691666666666667 -0.48791666666666667 -0.16458333333333336 -0.8283333333333334 0.12291666666666667 -1.1916666666666667 0.3966666666666667 -0.3279166666666667 -0.25333333333333335 0.22166666666666668 -0.6216666666666667 0.32333333333333336 -0.8854166666666667 0.29250000000000004 -0.5066666666666667 0.9583333333333335 -0.10416666666666669 1.2962500000000001 -0.46916666666666673 0.9608333333333334 -0.545 2.3000000000000003 0.33916666666666667 3.397916666666667 0.18958333333333335 0.8458333333333334 0.10625 1.8933333333333335 -0.7604166666666667 1.469166666666667 -1.6250000000000002 -0.9045833333333333 -1.1529166666666668 -0.7458333333333333 -2.660833333333333 -0.7662500000000001 -4.039583333333334 -0.11166666666666668 -0.80375 -2.0458333333333334 -1.8258333333333334 -2.605 -2.6925000000000003 -0.69125 -0.7804166666666666 -1.2291666666666667 -1.68625 -1.7679166666666668 -2.575833333333333 -1.9441666666666668 -3.753333333333334 -1.3325 -8.576666666666666 -3.7820833333333335 -12.06125 -1.1083333333333334 0.6108333333333335 -2.5520833333333335 0.3225 -3.5075000000000003 -0.49583333333333335 -0.5158333333333334 0.46875000000000006 -0.5383333333333334 1.0825 -0.5791666666666667 1.7337500000000001 -1.2375 -1.2341666666666669 -1.0804166666666666 -3.56625 -0.09166666666666667 -4.939583333333334 0.40375000000000005 -0.5425000000000001 0.8862500000000001 -0.9887500000000001 1.4250000000000003 -1.3816666666666668 0.12166666666666667 -0.08875000000000001 0.16291666666666668 -0.17458333333333334 0.16041666666666668 -0.31125 0.4891666666666667 -2.194583333333333 2.401666666666667 -3.0795833333333333 4.4558333333333335 -3.027916666666667m51.696250000000006 1.916666666666667c2.322916666666667 0 4.5025 0.8995833333333334 6.141666666666667 2.5341666666666667s2.541666666666667 3.810416666666667 2.541666666666667 6.126666666666667c0 2.316666666666667 -0.9029166666666667 4.491666666666667 -2.541666666666667 6.124166666666667v0.0025l-3.7583333333333337 3.747916666666667a8.666666666666668 8.666666666666668 0 0 1 -3.5820833333333337 2.1525l-0.06833333333333334 0.019583333333333335 -0.024166666666666666 0.06833333333333334a8.541666666666666 8.541666666666666 0 0 1 -1.975 3.0450000000000004l-3.7575000000000003 3.747916666666667c-1.6391666666666669 1.6350000000000002 -3.8208333333333337 2.5345833333333334 -6.14375 2.5345833333333334s-4.5025 -0.9 -6.141666666666667 -2.5345833333333334c-3.3875 -3.3779166666666667 -3.3875 -8.8725 0 -12.250833333333334l3.757916666666667 -3.747916666666667a8.566666666666668 8.566666666666668 0 0 1 3.575 -2.142916666666667l0.07083333333333335 -0.022083333333333333 0.024166666666666666 -0.06583333333333334a8.625 8.625 0 0 1 1.9800000000000002 -3.057083333333334l3.7575000000000003 -3.747916666666667c1.6391666666666669 -1.6350000000000002 3.8212500000000005 -2.5345833333333334 6.14375 -2.5345833333333334zm0 3.7354166666666666a4.916666666666667 4.916666666666667 0 0 0 -3.495 1.4425000000000001l-3.7575000000000003 3.747916666666667a4.920833333333334 4.920833333333334 0 0 0 -1.4279166666666667 3.8550000000000004l0.022083333333333333 0.23833333333333334c0.13458333333333336 1.105 0.6208333333333333 2.1016666666666666 1.4058333333333333 2.8820833333333336 0.5416666666666667 0.54 1.13875 0.8808333333333335 1.8629166666666668 1.1191666666666669a3.7500000000000004 3.7500000000000004 0 0 1 0.05833333333333334 0.6591666666666668 3.6833333333333336 3.6833333333333336 0 0 1 -1.0870833333333334 2.6266666666666665l-0.23083333333333333 0.23083333333333333c-1.2554166666666668 -0.4283333333333334 -2.3020833333333335 -1.0541666666666667 -3.2475 -1.9966666666666668a8.583333333333334 8.583333333333334 0 0 1 -2.4004166666666666 -4.57l-0.04125000000000001 -0.24083333333333334 -0.19208333333333336 0.15333333333333335a4.583333333333334 4.583333333333334 0 0 0 -0.365 0.33083333333333337l-3.7600000000000002 3.747916666666667c-1.92625 1.9208333333333336 -1.92625 5.05 0 6.970833333333334 0.9629166666666668 0.9604166666666668 2.229166666666667 1.4416666666666667 3.4975000000000005 1.4420833333333336 1.2679166666666668 0 2.5320833333333335 -0.4816666666666667 3.495 -1.4425000000000001l3.757916666666667 -3.747916666666667c1.92625 -1.9208333333333336 1.92625 -5.047083333333334 0 -6.970833333333334a4.875 4.875 0 0 0 -1.8195833333333333 -1.1454166666666667 4.166666666666667 4.166666666666667 0 0 1 -0.05833333333333334 -0.67125c0 -1.0795833333333333 0.42625 -2.104166666666667 1.2087500000000002 -2.8845833333333335 1.2579166666666668 0.4283333333333334 2.375 1.1225 3.3175000000000003 2.0625 1.252916666666667 1.2495833333333335 2.0808333333333335 2.829166666666667 2.3983333333333334 4.57l0.043750000000000004 0.24083333333333334 0.18958333333333335 -0.15541666666666668a4.583333333333334 4.583333333333334 0 0 0 0.3695833333333334 -0.33083333333333337l3.7583333333333337 -3.7483333333333335c1.9258333333333335 -1.9208333333333336 1.9283333333333335 -5.051666666666667 0 -6.972916666666667a4.916666666666667 4.916666666666667 0 0 0 -3.4979166666666672 -1.4425000000000001Zm-41.554166666666674 21.486250000000002 -0.0025 0.0025c-0.3304166666666667 1.2825000000000002 -0.4366666666666667 3.4658333333333333 -2.1083333333333334 3.529166666666667 -0.1375 0.7400000000000001 0.5116666666666667 1.01875 1.1062500000000002 0.7808333333333334 0.5875 -0.26875000000000004 0.8670833333333334 0.21166666666666667 1.0654166666666667 0.6904166666666667 0.9070833333333335 0.13208333333333333 2.2475 -0.3020833333333333 2.2983333333333333 -1.3741666666666668 -1.3541666666666667 -0.7779166666666667 -1.7720833333333335 -2.2575 -2.359166666666667 -3.62875"
    fill="#05311a" stroke-width="4.1667"></path>
</svg>