<svg width="150" height="150" viewBox="0 0 150 150" fill="none" xmlns="http://www.w3.org/2000/svg">
  <path
    d="M75.0018 99.4929L50.5089 75L75.0018 50.5071V0L5.05178 69.95C3.7127 71.2895 2.96045 73.106 2.96045 75C2.96045 76.894 3.7127 78.7105 5.05178 80.05L75.0018 150C75.0018 150 85.7161 142.857 85.7161 125C85.1618 115.524 81.3809 106.522 75.0018 99.4929Z"
    fill="#2684FF"/>
  <path
    d="M54.334 70.2393L54.8018 70.7071L75.0018 50.5071V0L37.1411 37.8571C39.9879 49.9516 45.9101 61.1059 54.334 70.2393Z"
    fill="#1D78F2"/>
  <path
    d="M59.5017 65.3036L59.8588 65.6607L75.0088 50.5107V0L43.3374 31.6643C45.3233 44.2158 50.9428 55.9105 59.5017 65.3036Z"
    fill="#126AE5"/>
  <path
    d="M75.0017 50.5071V0L50.0017 25C50.5491 38.2686 55.8341 50.9015 64.8981 60.6071L75.0017 50.5071Z"
    fill="#0B60DA"/>
  <path
    d="M57.1446 25C57.1446 41.95 69.3124 54.8964 69.9482 55.5571L75.0017 50.5071V0L57.7803 17.2214C57.3531 19.7922 57.1405 22.394 57.1446 25Z"
    fill="#0154CE"/>
  <path
    d="M75.0019 50.5071L99.4912 75L75.0019 99.4929V150L144.948 80.05C146.287 78.7105 147.04 76.894 147.04 75C147.04 73.106 146.287 71.2895 144.948 69.95L75.0019 0C75.0019 0 64.2876 7.14286 64.2876 25C64.8418 34.4763 68.6228 43.4775 75.0019 50.5071Z"
    fill="#2482FD"/>
  <path
    d="M95.666 79.7608L95.1981 79.293L75.0017 99.493V150L112.859 112.143C110.012 100.048 104.09 88.8942 95.666 79.7608Z"
    fill="#1D78F2"/>
  <path
    d="M90.4982 84.6965L90.1411 84.3394L74.9946 99.4894V150L106.659 118.336C104.673 105.785 99.0547 94.0907 90.4982 84.6965Z"
    fill="#126AE5"/>
  <path
    d="M75.0017 99.4931V150L100.002 125C99.4537 111.731 94.1673 99.098 85.1017 89.3931L75.0017 99.4931Z"
    fill="#0B60DA"/>
  <path
    d="M92.8589 125C92.8589 108.05 80.691 95.1036 80.0517 94.4429L75.0017 99.4929V150L92.2231 132.779C92.6485 130.208 92.8612 127.606 92.8589 125Z"
    fill="#0154CE"/>
  <path
    d="M75.0018 99.4929L50.5089 75H10.7161V85.7143L75.0018 150C75.0018 150 85.7161 142.857 85.7161 125C85.1618 115.524 81.3809 106.522 75.0018 99.4929Z"
    fill="#2684FF"/>
</svg>
