<svg width="150" height="150" viewBox="0 0 150 150" fill="none" xmlns="http://www.w3.org/2000/svg">
  <path
    d="M115.625 75C115.625 64.6438 107.231 56.25 96.875 56.25H18.4938C16.6344 62.1688 15.625 68.4656 15.625 75C15.625 81.5344 16.6344 87.8312 18.4938 93.75H96.875C107.231 93.75 115.625 85.3562 115.625 75Z"
    fill="#29B6F6"/>
  <path
    d="M78.1251 137.5C98.5126 137.5 116.578 127.709 127.981 112.6C121.359 106.722 112.672 103.125 103.125 103.125H22.3657C32.6657 123.5 53.7376 137.5 78.1251 137.5Z"
    fill="#4DB6AC"/>
  <path
    d="M78.1251 12.5C53.7345 12.5 32.6657 26.5 22.3657 46.875H103.125C112.659 46.875 121.338 43.2875 127.956 37.425C116.559 22.3062 98.5157 12.5 78.1251 12.5Z"
    fill="#FFCA28"/>
  <path
    d="M68.978 46.8752C64.2499 36.3533 56.9624 27.2252 47.8937 20.3096C36.928 26.3846 27.9905 35.6627 22.3218 46.8752H68.978Z"
    fill="#F9A825"/>
  <path
    d="M47.8937 129.691C56.9624 122.775 64.2468 113.647 68.978 103.125H22.3218C27.9905 114.338 36.928 123.616 47.8937 129.691Z"
    fill="#009688"/>
  <path
    d="M18.525 56.25C16.6625 62.1719 15.625 68.4594 15.625 75C15.625 81.5406 16.6625 87.8281 18.525 93.75H72.3813C74.0719 87.7875 75 81.5031 75 75C75 68.4969 74.0719 62.2125 72.3844 56.25H18.525Z"
    fill="#212121"/>
</svg>
