<svg width="150" height="150" viewBox="0 0 150 150" fill="none" xmlns="http://www.w3.org/2000/svg">
  <path
    d="M20.8618 6.28656C15.843 5.99906 10.7293 8.3765 8.15428 12.6952C6.91053 14.8015 6.27471 17.1065 6.26221 19.519C6.25596 25.3378 10.0121 30.0669 12.2558 32.8857C12.6496 33.3857 13.0102 33.8193 13.3789 34.3506L14.3921 35.6933C15.4046 37.0121 16.5383 38.4956 16.8945 39.2456C17.0195 39.5956 17.1825 40.2043 17.395 40.9668C18.3763 44.498 20.2077 51.0609 23.1202 56.0546C24.2889 58.0734 25.9488 60.5966 27.1363 62.3779C26.3425 66.3529 25 73.6749 25 78.1249C25 85.9375 26.6202 92.2117 30.1514 97.9492C31.4577 99.9992 35.4438 106.25 42.1875 106.25C44.5813 106.25 48.5589 105.315 49.6339 99.3775C54.4151 105.546 60.1717 112.095 70.1905 118.189C70.6842 118.514 71.2438 118.75 71.875 118.75C73.6 118.75 75 117.35 75 115.625C75 114.581 74.451 113.704 73.6573 113.135C65.0948 104.879 53.7813 91.0483 49.2188 79.7608C48.275 77.417 45.1676 77.062 43.7989 79.187C42.3739 81.4058 40.7102 84.4023 39.1602 88.1836C38.0289 85.3211 37.5 82.0937 37.5 78.125C37.5 75.2125 39.1465 66.4886 39.9903 62.1948C40.3028 60.6136 39.981 59.0279 39.0748 57.6904C37.5373 55.4217 35.1234 51.8243 33.9234 49.7681C31.8234 46.1681 30.2747 40.5974 29.4434 37.6099C29.0434 36.1599 28.718 35.0997 28.418 34.3873C27.3243 32.0123 25.7287 29.9259 24.3287 28.0884L23.5352 27.0631C23.1415 26.4943 22.6213 25.829 22.0338 25.0978C20.89 23.6603 18.7608 20.9878 18.8233 19.2628L19.5192 18.7746L19.5313 18.7501C24.5001 18.7501 30.9006 22.2713 33.3131 23.5963C34.0943 24.0276 34.6792 24.3255 34.9855 24.463L36.0719 24.9391L38.2082 25.0245C41.0019 25.087 49.4934 25.2734 55.4933 27.6734C66.437 32.0484 72.4878 36.4399 78.6378 44.4337C86.8941 55.1649 92.1897 67.6879 95.2272 76.5504C96.6397 80.6629 97.8711 85.354 98.6086 88.379C99.0898 90.3603 100.517 91.9324 102.417 92.6637C105.161 93.7199 109.256 95.4483 112.512 97.4733C115.281 99.192 118.374 101.423 121.387 104.248C114.543 105.942 110.415 108.642 108.24 110.486C106.952 111.58 106.841 113.495 107.935 114.783C110.047 117.27 114.725 121.394 123.45 127.332C130.006 131.794 136.932 140.591 138.245 142.578C138.814 143.284 139.65 143.75 140.625 143.75C142.35 143.75 143.75 142.35 143.75 140.625C143.75 139.975 143.551 139.379 143.213 138.879C143.101 138.717 142.281 137.343 141.956 136.768C138.831 131.249 132.923 123.305 126.904 115.674C131.004 114.361 135.609 113.399 138.941 112.793C141.159 112.387 142.236 109.828 140.955 107.971C139.242 105.503 136.738 102.19 133.594 98.8648C124.775 89.5398 115.086 84.2492 109.986 82.068C107.904 74.1492 101.644 53.8353 88.55 36.8165C81.0562 27.0728 73.082 21.2458 60.132 16.0646C52.4632 13.0021 43.2421 12.6367 39.1358 12.5367C35.7421 10.6742 28.4243 6.71781 20.8618 6.28656ZM44.6289 31.2499C44.5352 31.2499 42.3622 31.2597 39.856 31.8847C39.3497 32.0159 38.9386 32.3859 38.7574 32.8734C38.5823 33.3609 38.6586 33.9011 38.9648 34.3261L45.4224 43.1151C45.7161 43.5151 46.0734 43.9061 46.6797 43.7499C47.1734 43.7499 47.637 43.5211 47.937 43.1273C49.9807 40.4023 50 37.2405 50 37.1093C50 36.9218 49.9711 36.7349 49.9024 36.5599C49.8461 36.4099 48.4577 32.8091 45.2515 31.3842C45.0515 31.2967 44.8414 31.2499 44.6289 31.2499Z"
    fill="#21A5C2"/>
</svg>
