<svg width="150" height="150" viewBox="0 0 150 150" fill="none" xmlns="http://www.w3.org/2000/svg">
  <path
    d="M137.759 93.0939C137.187 90.5033 134.837 87.4814 130.097 87.4814C129.128 87.4814 128.069 87.6033 126.862 87.8533C124.65 88.3096 122.766 88.5314 121.106 88.6064C134.022 66.6064 142.406 36.0471 134.103 25.4377C123.162 11.4596 108.434 9.37207 100.631 9.37207L99.8968 9.3752C96.9937 9.42207 93.9812 9.77832 90.95 10.4346L79.7531 12.8533C78.2281 12.6627 76.675 12.5283 75.0562 12.5002H74.9625H74.9125L74.4375 12.4971C69.4593 12.4971 64.9187 13.5533 60.8718 15.5377L56.9625 13.9971C51.5875 11.8783 43.5 9.35645 35.5 9.35645C35.05 9.35645 34.6031 9.36582 34.1531 9.38145C26.2718 9.66582 19.5031 12.6564 14.575 18.0283C8.42496 24.7346 5.62496 34.5439 6.25934 47.1877C6.29059 47.8408 13.9406 112.5 35.625 112.5H35.7031L35.9031 112.497C38.7187 112.428 41.4031 111.297 43.9125 109.131C45.8281 110.569 48.3062 111.419 50.6156 111.756C52.1406 112.116 54.8843 112.625 58.1718 112.625C62.1843 112.625 65.8031 111.803 68.9218 110.319C68.9187 113.069 68.9031 116.55 68.8718 121L68.8687 121.235L68.8843 121.469C69.1875 125.903 69.9531 129.9 71.1062 133.035C74.3906 141.969 80.0625 146.891 87.0781 146.891C87.3687 146.891 87.6656 146.881 87.9656 146.863C93.7343 146.506 99.5812 143.266 103.603 138.2C107.956 132.716 108.962 126.928 109.35 122.494L109.375 122.222V121.947V109.2L109.697 109.231L111.059 109.35L111.191 109.363L111.322 109.369C111.709 109.388 112.109 109.394 112.512 109.394C117.222 109.394 123.019 108.172 126.937 106.35C130.684 104.613 139.247 99.8377 137.759 93.0939Z"
    fill="white"/>
  <path
    d="M103.125 106.25C103.125 105.61 103.163 105.075 103.181 104.485C103.15 103.7 103.125 103.125 103.125 103.125C103.125 103.125 103.163 103.097 103.225 103.056C103.691 94.7033 105.994 91.4845 108.459 89.6501C108.116 89.172 107.719 88.6564 107.347 88.1658C106.306 86.8001 105.009 85.1064 103.622 82.9345L103.366 82.4408C103.156 81.9283 102.65 81.0439 102.006 79.8814C98.3095 73.1939 90.6157 59.2814 95.8813 50.4939C98.1876 46.6439 102.513 44.4251 108.759 43.8783C106.206 36.6189 96.6407 19.1095 74.9532 18.7501C74.947 18.7501 74.9407 18.7501 74.9345 18.7501C56.0563 18.4439 49.8532 35.6001 47.8345 45.8501C50.6157 44.672 53.7907 43.9564 56.697 43.9564C56.7407 43.9564 56.7876 43.9564 56.8313 43.9564C63.9876 44.0095 68.9095 47.8283 70.3407 54.4376C71.3876 59.2876 71.8907 63.5314 71.8782 67.4158C71.847 75.9126 70.1345 80.3814 68.622 84.3251L68.1407 85.6001C67.7532 86.6439 67.3438 87.6158 66.9563 88.5283C66.5626 89.4595 66.2157 90.2876 65.9626 91.0345C67.4751 91.3783 68.6626 91.8626 69.4782 92.222L69.9501 92.4283C70.097 92.4908 70.2438 92.5626 70.3782 92.6439C73.0282 94.2564 74.6782 96.7345 75.0313 99.622C75.222 101.178 75.1907 111.788 75.1251 121.044C75.397 125.06 76.0782 128.431 76.9782 130.875C78.2563 134.356 81.4501 141.003 87.5845 140.622C91.8657 140.356 95.9813 137.75 98.7126 134.313C101.644 130.622 102.725 126.541 103.131 121.944V106.25H103.125Z"
    fill="#0277BD"/>
  <path
    d="M47.2312 90.3658C42.1906 85.1064 39.7344 78.0314 40.6562 71.4408C41.5469 65.0814 41.0437 58.8564 40.7719 55.5095C40.6812 54.3939 40.6219 53.5626 40.625 53.1033C40.625 53.0783 40.6312 53.0564 40.6344 53.0314C40.6344 53.0189 40.6281 53.0095 40.6281 52.997C41.0062 43.5564 44.6469 28.6626 54.6687 19.8095C49.7875 17.8876 41.8375 15.3533 34.375 15.6251C22.6812 16.0501 11.3625 24.1376 12.5 46.8751C12.9281 55.4064 22.5687 106.572 35.75 106.25C37.6344 106.203 39.5906 104.994 41.6 102.575C44.7781 98.7533 47.8656 95.2876 50.0625 92.8751C49.0781 92.1283 48.1281 91.3033 47.2312 90.3658ZM115.697 46.0345C115.744 46.5158 115.703 46.9283 115.628 47.3095C115.725 50.1845 115.416 52.9751 115.1 55.6751C114.869 57.6626 114.631 59.7158 114.566 61.7751C114.5 63.7908 114.784 65.7814 115.084 67.8876C115.787 72.8189 116.519 78.3845 112.694 84.8783C113.397 85.8033 114.016 86.6626 114.509 87.4939C128.916 64.1345 134.722 36.3658 129.181 29.2876C120.797 18.5751 109.191 15.4751 99.9969 15.6251C97.1187 15.672 94.5031 16.0595 92.2687 16.5439C108.131 24.2314 115.197 40.7064 115.697 46.0345ZM128.125 93.972C119.797 95.6908 115.791 94.7751 113.847 93.5783C113.534 93.8033 113.222 93.9939 112.931 94.172C111.769 94.8751 109.928 95.9939 109.478 102.866C109.737 102.916 109.966 102.944 110.247 103.003L111.606 103.125C115.731 103.313 121.134 102.156 124.303 100.685C131.131 97.5158 134.853 92.5845 128.125 93.972ZM68.8219 100.372C68.7062 99.4408 68.2031 98.6876 67.2844 98.0845L66.9469 97.9376C65.8187 97.4408 64.5406 96.8751 62.5 96.8751H62.4875C62.0906 96.9064 61.6969 96.9345 61.3 96.9345C61.1375 96.9345 60.9781 96.9126 60.8156 96.9064C59.3344 98.047 57.2281 98.9283 52.0156 100C42.7031 102.372 48.2 105.172 51.7719 105.606C55.2281 106.472 63.4437 107.525 68.9 103.078C68.8844 101.678 68.8594 100.716 68.8219 100.372Z"
    fill="#0277BD"/>
  <path
    d="M64.6281 57.8156C63.7156 58.7594 62.275 59.5844 60.6843 59.3281C58.0968 58.9094 56.1125 55.7875 56.2562 54.6156C56.3937 53.4469 58.6031 52.8375 61.1874 53.2562C62.0843 53.4031 62.8999 53.6563 63.5874 53.9688C62.5874 51.8188 60.7781 50.5781 58.0187 50.275C53.1281 49.7312 47.9374 52.2875 46.8937 53.7031C46.9156 54.0469 46.9562 54.4875 46.9968 55.0062C47.2874 58.5906 47.825 65.2687 46.8406 72.3094C46.1906 76.95 48.0687 82.2125 51.7374 86.0438C54.1031 88.5125 56.8656 90.075 59.5906 90.5375C59.9374 89.0437 60.5562 87.5875 61.1937 86.0844C61.5468 85.2563 61.9218 84.375 62.2749 83.4219L62.7812 82.0875C64.1656 78.4781 65.5937 74.7437 65.6218 67.3906C65.6343 64.5625 65.2874 61.3344 64.6281 57.8156ZM108.897 68.7719C108.572 66.4937 108.237 64.1344 108.319 61.575C108.391 59.2563 108.647 57.0687 108.894 54.9531C109.087 53.2875 109.237 51.6875 109.325 50.1094C105.297 50.4437 102.622 51.6062 101.353 53.5719C101.878 53.3937 102.472 53.2531 103.128 53.1688C105.916 52.8063 107.95 53.6094 108.184 55.1594C108.356 56.2937 107.394 57.3625 106.972 57.7719C106.106 58.6125 105.016 59.1531 103.906 59.2969C103.706 59.3219 103.503 59.3344 103.306 59.3344C102.203 59.3344 101.15 58.9563 100.341 58.3969C100.691 64.5625 105.237 72.8094 107.475 76.8562C107.953 77.7219 108.322 78.4125 108.628 79.0062C109.856 75.5094 109.403 72.3219 108.897 68.7719Z"
    fill="#0277BD"/>
</svg>
