<svg width="150" height="150" viewBox="0 0 150 150" fill="none" xmlns="http://www.w3.org/2000/svg">
  <path
    d="M140.625 91.6126C140.625 89.622 135.356 88.0095 128.847 88.0095C123.184 88.0095 118.472 89.2313 117.338 90.8563C106.131 85.5626 94.9219 80.2688 83.7156 74.972C79.8156 73.1282 75.3625 73.147 71.4719 75.0157C59.5406 80.7563 47.6094 86.497 35.6781 92.2376C32.9781 91.8439 29.7188 91.6095 26.2031 91.6095C16.9 91.6126 9.375 93.2251 9.375 95.2157V106.028C9.375 106.131 9.47813 106.228 9.51563 106.328C9.05938 108.063 9.73438 110.094 11.5438 110.947C29.1719 119.275 46.7969 127.6 64.425 135.928C68.9 138.044 74.0125 138.025 78.475 135.878C98.6062 126.191 118.737 116.506 138.872 106.819C140.384 106.091 140.906 104.363 140.463 102.922C140.534 102.756 140.625 102.594 140.625 102.422V91.6126Z"
    fill="#B71C1C"/>
  <path
    d="M64.4251 122.369C46.797 114.488 29.172 106.606 11.5439 98.725C8.66262 97.4375 8.65012 93.3281 11.522 92.0187C31.5064 82.9187 51.4876 73.8187 71.472 64.7187C75.3595 62.9469 79.8157 62.9312 83.7157 64.675C102.094 72.8937 120.475 81.1094 138.853 89.3281C141.209 90.3812 141.222 93.7469 138.872 94.8156C118.741 103.984 98.6095 113.153 78.4751 122.319C74.0126 124.35 68.9001 124.369 64.4251 122.369Z"
    fill="#E53935"/>
  <path
    d="M140.625 67.7342C140.625 65.7435 135.356 64.1311 128.847 64.1311C123.184 64.1311 118.472 65.3529 117.338 66.9779C106.131 61.6842 94.9219 56.3904 83.7156 51.0936C79.8156 49.2498 75.3625 49.2686 71.4719 51.1373C59.5406 56.8779 47.6094 62.6186 35.6781 68.3592C32.9781 67.9654 29.7188 67.7311 26.2031 67.7311C16.9 67.7342 9.375 69.3498 9.375 71.3404V82.1529C9.375 82.2561 9.47813 82.3529 9.51563 82.4529C9.05938 84.1873 9.73438 86.2186 11.5438 87.0717C29.1719 95.3998 46.7969 103.725 64.425 112.053C68.9 114.169 74.0125 114.15 78.475 112.003C98.6062 102.315 118.737 92.6311 138.872 82.9436C140.384 82.2154 140.906 80.4873 140.463 79.0467C140.534 78.8811 140.625 78.7186 140.625 78.5467V67.7342Z"
    fill="#B71C1C"/>
  <path
    d="M64.4251 98.4908C46.797 90.6096 29.172 82.7283 11.5439 74.8471C8.66262 73.5596 8.65012 69.4502 11.522 68.1408C31.5064 59.0408 51.4876 49.9408 71.472 40.8408C75.3595 39.0689 79.8157 39.0533 83.7157 40.7971C102.094 49.0158 120.475 57.2314 138.853 65.4502C141.209 66.5033 141.222 69.8689 138.872 70.9377C118.741 80.1064 98.6095 89.2752 78.4751 98.4408C74.0126 100.475 68.9001 100.494 64.4251 98.4908Z"
    fill="#E53935"/>
  <path
    d="M140.625 43.8592C140.625 41.8686 135.356 40.2561 128.847 40.2561C123.184 40.2561 118.472 41.4779 117.338 43.1029C106.131 37.8092 94.9219 32.5154 83.7156 27.2186C79.8156 25.3748 75.3625 25.3936 71.4719 27.2623C59.5406 33.0029 47.6094 38.7436 35.6781 44.4842C32.9781 44.0904 29.7188 43.8561 26.2031 43.8561C16.9 43.8592 9.375 45.4717 9.375 47.4623V58.2748C9.375 58.3779 9.47813 58.4748 9.51563 58.5748C9.05938 60.3092 9.73438 62.3404 11.5438 63.1936C29.1719 71.5217 46.7969 79.8467 64.425 88.1748C68.9 90.2904 74.0125 90.2717 78.475 88.1248C98.6062 78.4373 118.737 68.7529 138.872 59.0654C140.384 58.3373 140.906 56.6092 140.463 55.1686C140.534 55.0029 140.625 54.8404 140.625 54.6686V43.8592Z"
    fill="#B71C1C"/>
  <path
    d="M64.4251 74.6158C46.797 66.7346 29.172 58.8533 11.5439 50.9721C8.66262 49.6846 8.65012 45.5752 11.522 44.2658C31.5064 35.1658 51.4876 26.0658 71.472 16.9658C75.3595 15.1939 79.8157 15.1783 83.7157 16.9221C102.094 25.1408 120.475 33.3564 138.853 41.5752C141.209 42.6283 141.222 45.9939 138.872 47.0627C118.741 56.2314 98.6095 65.4002 78.4751 74.5658C74.0126 76.6002 68.9001 76.6158 64.4251 74.6158Z"
    fill="#E53935"/>
  <path
    d="M58.5875 46.0659C58.5812 49.3221 49.9562 52.494 42.6718 52.5846C35.1125 52.6784 26.1937 49.4815 26.1656 46.1752C26.1375 42.8596 35.0468 39.4221 42.7625 39.5034C50.0531 39.5784 58.5968 42.8221 58.5875 46.0659Z"
    fill="white"/>
  <path
    d="M53.2437 57.7218C60.7218 60.9155 68.1968 64.1124 75.6749 67.3062C78.9687 62.4312 82.2624 57.5562 85.5562 52.6812C74.7843 54.3624 64.0155 56.0437 53.2437 57.7218Z"
    fill="white"/>
  <path
    d="M68.3125 30.5471C64.8719 31.8002 61.4282 33.0502 57.9875 34.3033C62.6969 34.7158 67.4094 35.1283 72.1188 35.5377C73.6188 38.0252 75.1157 40.5127 76.6157 42.9971C77.5375 40.7408 78.4594 38.4846 79.3813 36.2283C83.4 35.9158 87.4188 35.6033 91.4375 35.2908C88.3219 33.9814 85.2063 32.6689 82.0907 31.3564C82.8844 29.4564 83.6782 27.5564 84.4719 25.6533C81.4407 26.5596 78.4125 27.4658 75.3813 28.3721C72.0375 27.0533 68.6938 25.7377 65.3501 24.4189C66.3376 26.4627 67.3251 28.5064 68.3125 30.5471Z"
    fill="white"/>
  <path
    d="M85.2095 45.6844C92.3063 42.8531 99.4064 40.0187 106.503 37.1875C112.634 39.7938 118.766 42.4 124.897 45.0063C118.016 47.7438 111.138 50.4813 104.256 53.2219C97.9095 50.7063 91.5595 48.1969 85.2095 45.6844Z"
    fill="#B71C1C"/>
  <path
    d="M106.506 37.3843C106.491 42.3718 106.475 47.3562 106.459 52.3436C112.606 49.8968 118.753 47.453 124.9 45.0062C118.769 42.4655 112.638 39.9249 106.506 37.3843Z"
    fill="#A01C1C"/>
</svg>
