<svg width="150" height="150" viewBox="0 0 150 150" fill="none" xmlns="http://www.w3.org/2000/svg">
  <path d="M128.125 15.625H21.875L31.25 121.875L75 134.375L118.75 121.875L128.125 15.625Z"
    fill="#0277BD"/>
  <path d="M75 25V124.688L110 114.687L117.813 25H75Z" fill="#039BE5"/>
  <path
    d="M103.437 40.625H75V53.125H90.3125L89.375 65.625H75V78.125H88.75L87.8125 92.1875L75 96.5625V109.687L99.6875 101.562L101.875 65.625L103.437 40.625Z"
    fill="white"/>
  <path
    d="M75 40.625V53.125H47.1875L46.25 40.625H75ZM60.625 65.625L61.25 78.125H75V65.625H60.625ZM61.875 84.375H49.375L50.3125 101.562L75 109.687V96.5625L62.1875 92.1875L61.875 84.375Z"
    fill="#EEEEEE"/>
</svg>
