<svg width="150" height="150" viewBox="0 0 150 150" fill="none" xmlns="http://www.w3.org/2000/svg">
  <path d="M128.125 15.625H21.875L31.25 121.875L75 134.375L118.75 121.875L128.125 15.625Z"
    fill="#E65100"/>
  <path d="M75 25V124.688L110 114.687L117.813 25H75Z" fill="#FF6D00"/>
  <path
    d="M75 78.125V65.625H101.875L99.6875 101.562L75 109.687V96.5625L87.8125 92.1875L88.75 78.125H75ZM102.813 53.125L103.75 40.625H75V53.125H102.813Z"
    fill="white"/>
  <path
    d="M75 96.5625V109.687L50.3125 101.562L49.0625 84.375H61.5625L62.1875 92.1875L75 96.5625ZM59.6875 53.125H75V40.625H46.5625L48.75 78.125H75V65.625H60.625L59.6875 53.125Z"
    fill="#EEEEEE"/>
</svg>
