<svg width="150" height="150" viewBox="0 0 150 150" fill="none" xmlns="http://www.w3.org/2000/svg">
  <path
    d="M73.9063 77.8064C70.7875 72.7783 68.525 68.6096 65.3906 60.7596C60.0906 47.5002 97.625 35.5189 82.4063 12.4971C89.0031 28.4002 58.7281 38.2314 55.9156 51.4752C53.3438 63.6564 73.8906 77.8064 73.9063 77.8064Z"
    fill="#F44336"/>
  <path
    d="M74.6188 53.9689C74.0188 61.8314 81.5845 66.0221 81.8032 71.7658C81.9782 76.4408 77.2813 80.3377 77.2813 80.3377C77.2813 80.3377 85.8063 78.6627 88.4657 71.5314C91.4188 63.6127 82.7345 58.1908 83.6282 51.8502C84.4626 45.7939 102.475 34.5283 102.475 34.5283C102.475 34.5283 75.972 36.2846 74.6188 53.9689Z"
    fill="#F44336"/>
  <path
    d="M100.262 78.2969C105.744 77.0656 110.366 80.5563 110.366 84.5782C110.366 93.6438 97.7999 102.213 97.7999 102.213C97.7999 102.213 117.253 99.8938 117.253 85.0094C117.253 75.1656 107.7 72.7063 100.262 78.2969ZM91.028 85.6094C91.028 85.6094 97.0937 81.2875 98.7093 79.6656C83.8249 82.825 49.8405 83.25 49.8405 80.5063C49.8405 77.9781 60.7999 75.3875 60.7999 75.3875C60.7999 75.3875 36.5093 75.0375 36.5093 82.2031C36.5093 89.6719 68.3062 90.2063 91.028 85.6094Z"
    fill="#1565C0"/>
  <path
    d="M87.297 92.4093C73.2064 97.0937 47.2532 95.5968 54.9407 89.3062C51.197 89.3062 45.647 92.3155 45.647 95.2093C45.647 101.012 73.7157 105.494 94.4907 96.9968L87.297 92.4093Z"
    fill="#1565C0"/>
  <path
    d="M58.3938 102.31C53.2813 102.31 49.9719 105.603 49.9719 108.003C49.9719 115.475 80.4719 116.228 92.5563 108.644L84.875 103.544C75.8469 107.513 53.1688 108.06 58.3938 102.31Z"
    fill="#1565C0"/>
  <path
    d="M113.378 114.475C113.378 111.55 110.081 110.172 108.9 109.512C115.863 126.303 39.1594 125 39.1594 115.087C39.1594 112.834 44.8062 110.628 50.025 111.672L45.5875 109.05C35.1875 107.419 28.125 111.991 28.125 115.678C28.125 132.875 113.378 132.047 113.378 114.475Z"
    fill="#1565C0"/>
  <path
    d="M121.875 120.638C108.919 133.435 76.0656 138.097 43.0281 130.191C76.0656 144.263 121.719 136.338 121.875 120.638Z"
    fill="#1565C0"/>
</svg>
