<svg width="150" height="150" viewBox="0 0 150 150" fill="none" xmlns="http://www.w3.org/2000/svg">
  <path d="M18.75 131.25V18.75H131.25V131.25H18.75Z" fill="#FFD600"/>
  <path
    d="M92.3062 102.959C94.4687 106.472 96.8187 109.837 101.797 109.837C105.978 109.837 108.172 107.759 108.172 104.884C108.172 101.444 105.903 100.222 101.303 98.2187L98.7812 97.1437C91.503 94.0562 86.6624 90.1875 86.6624 82.0156C86.6624 74.4844 92.428 68.7531 101.437 68.7531C107.853 68.7531 112.462 70.975 115.787 76.7937L107.931 81.8156C106.203 78.7281 104.334 77.5125 101.437 77.5125C98.4811 77.5125 96.6093 79.3781 96.6093 81.8156C96.6093 84.8281 98.4843 86.0469 102.812 87.9125L105.334 88.9875C113.912 92.6406 118.75 96.3719 118.75 104.759C118.75 113.797 111.612 118.75 102.031 118.75C92.6593 118.75 87.3374 114.047 84.3749 108.225L92.3062 102.959ZM56.0999 103.216C57.6812 106.047 60.0843 108.225 63.5405 108.225C66.8468 108.225 68.7499 106.919 68.7499 101.841V68.75H79.1655V103.441C79.1655 113.962 73.0624 118.75 64.1499 118.75C56.0968 118.75 50.2843 113.294 47.9155 108.225L56.0999 103.216Z"
    fill="#000001"/>
</svg>
