<svg width="150" height="150" viewBox="0 0 150 150" fill="none" xmlns="http://www.w3.org/2000/svg">
  <path d="M75 18.75L56.2188 38.5937L37.4062 58.4062L18.75 78.125V18.75H75Z" fill="#0D91D6"/>
  <path
    d="M75 18.75H74.875L56.1562 38.5312L37.375 58.375L18.75 78.0312V78.125V78.4062V131.25L45.9062 104.094L65.2188 84.7812L84.5625 65.4375L103.906 46.0938L131.25 18.75H75Z"
    fill="#F88909"/>
  <path d="M45.9062 104.094L18.75 131.25V78.4062L45.9062 104.094Z" fill="#C757BC"/>
  <path d="M65.2188 84.7812L45.9062 104.094L18.75 78.4062V78.125L37.4062 58.4062L65.2188 84.7812Z"
    fill="#D3638F"/>
  <path d="M84.5625 65.4375L65.2188 84.7812L37.4062 58.4062L56.2188 38.5938L84.5625 65.4375Z"
    fill="#E07063"/>
  <path d="M103.906 46.0938L84.5625 65.4375L56.2188 38.5938L75 18.75L103.906 46.0938Z"
    fill="#EC7D36"/>
  <path d="M131.25 18.75L103.906 46.0937L75 18.75H131.25Z" fill="#F88909"/>
  <path d="M35.9688 59.8438L24.9688 71.5L18.75 65.625V43.5625L35.9688 59.8438Z" fill="#0095D5"/>
  <path d="M46.9688 48.1875L35.9688 59.8437L18.75 43.5625V21.4688L46.9688 48.1875Z" fill="#2B88DA"/>
  <path d="M58 36.5625L46.9688 48.1875L18.75 21.4688V18.75H39.1562L58 36.5625Z" fill="#557BDE"/>
  <path d="M69 24.9062L58 36.5625L39.1562 18.75H75L69 24.9062Z" fill="#806EE3"/>
  <path d="M71.875 78.125L18.75 131.25H29.2188H54.75H125L71.875 78.125Z" fill="#0095D5"/>
  <path d="M80.25 131.25H54.75L36.75 113.281L49.5 100.531L80.25 131.25Z" fill="#2B88DA"/>
  <path d="M105.812 131.25H80.25L49.5 100.531L62.25 87.7812L105.812 131.25Z" fill="#557BDE"/>
  <path d="M131.25 131.25H105.812L62.25 87.7812L75 75L131.25 131.25Z" fill="#806EE3"/>
</svg>
