<svg width="150" height="150" viewBox="0 0 150 150" fill="none" xmlns="http://www.w3.org/2000/svg">
  <path
    d="M75.147 15.6252C70.2876 15.6409 66.9188 16.069 62.847 16.7721C50.822 18.8659 48.6313 23.2627 48.6313 31.3658V43.7502H76.7563V50.0002H47.5626H33.9688C25.7313 50.0002 18.522 53.8815 16.2376 63.1846C13.6563 73.8627 13.5407 80.5502 16.2376 91.7002C18.2845 100.016 22.7938 106.25 31.0345 106.25H42.3845V90.3002C42.3845 81.0315 50.7782 71.8752 60.397 71.8752H83.0094C90.8938 71.8752 98.6344 66.0565 98.6344 58.1971V31.3658C98.6344 23.744 93.1376 18.044 85.4532 16.7659C85.6438 16.7471 79.9657 15.6065 75.147 15.6252ZM59.572 28.1252C62.1376 28.1252 64.2595 30.2409 64.2595 32.819C64.2595 35.4221 62.1376 37.5002 59.572 37.5002C56.9563 37.5002 54.8845 35.4252 54.8845 32.819C54.8845 30.2502 56.9563 28.1252 59.572 28.1252Z"
    fill="#0277BD"/>
  <path
    d="M72.1188 134.375C76.9782 134.359 80.347 133.931 84.4188 133.228C96.4438 131.134 98.6345 126.737 98.6345 118.634V106.25H70.5095V100H99.7063H113.3C121.538 100 128.747 96.1187 131.031 86.8156C133.613 76.1375 133.728 69.45 131.031 58.3C128.981 49.9844 124.472 43.75 116.231 43.75H104.881V59.7C104.881 68.9687 96.4876 78.125 86.8688 78.125H64.2563C56.372 78.125 48.6313 83.9437 48.6313 91.8031V118.634C48.6313 126.256 54.1282 131.956 61.8126 133.234C61.622 133.253 67.3001 134.394 72.1188 134.375ZM87.697 121.875C85.1313 121.875 83.0095 119.759 83.0095 117.181C83.0095 114.578 85.1313 112.5 87.697 112.5C90.3126 112.5 92.3845 114.575 92.3845 117.181C92.3845 119.75 90.3095 121.875 87.697 121.875Z"
    fill="#FFC107"/>
</svg>
