<svg width="150" height="150" viewBox="0 0 150 150" fill="none" xmlns="http://www.w3.org/2000/svg">
  <path
    d="M58.5938 61.9375C65.808 61.9375 71.6562 67.7858 71.6562 75C71.6562 82.2142 65.808 88.0625 58.5938 88.0625C51.3795 88.0625 45.5312 82.2142 45.5312 75C45.5312 67.7858 51.3795 61.9375 58.5938 61.9375Z"
    fill="url(#paint0_linear_50_1327)" stroke="black" stroke-width="2"/>
  <path
    d="M58.5938 10.375C64.5136 10.375 69.3125 15.1739 69.3125 21.0938C69.3125 27.0136 64.5136 31.8125 58.5938 31.8125C52.6739 31.8125 47.875 27.0136 47.875 21.0938C47.875 15.1739 52.6739 10.375 58.5938 10.375Z"
    fill="url(#paint1_linear_50_1327)" stroke="black" stroke-width="2"/>
  <path
    d="M106.617 38.5C107.447 38.5 108.298 38.6059 109.103 38.8174V38.8184C111.585 39.4761 113.641 41.0644 114.915 43.2734C116.189 45.4817 116.527 48.0454 115.869 50.5078V50.5098C115.253 52.8367 113.818 54.7883 111.822 56.0732L111.414 56.3213C109.942 57.1515 108.309 57.5937 106.664 57.5938C105.834 57.5938 104.982 57.4871 104.177 57.2754H104.178C101.696 56.6177 99.6409 55.0294 98.3665 52.8203C97.0924 50.612 96.7533 48.0485 97.4114 45.5859L97.4124 45.584C98.0694 43.1045 99.6544 41.0511 101.86 39.7764C103.333 38.9435 104.97 38.5 106.617 38.5Z"
    fill="url(#paint2_linear_50_1327)" stroke="black" stroke-width="2"/>
  <path
    d="M106.664 92.4062C108.309 92.4063 109.943 92.8476 111.414 93.6777V93.6787C113.623 94.9531 115.212 97.008 115.869 99.4902V99.4922C116.527 101.955 116.189 104.518 114.915 106.727C113.642 108.934 111.589 110.521 109.134 111.18C108.301 111.393 107.447 111.5 106.617 111.5C105.072 111.5 103.537 111.11 102.137 110.375L101.86 110.224C99.6544 108.949 98.0694 106.895 97.4124 104.416L97.4114 104.414L97.3 103.951C96.7996 101.632 97.172 99.2501 98.3665 97.1797C99.6398 94.9726 101.692 93.3854 104.147 92.7266C104.98 92.5129 105.835 92.4062 106.664 92.4062Z"
    fill="url(#paint3_linear_50_1327)" stroke="black" stroke-width="2"/>
  <path
    d="M58.5938 118.188C64.5136 118.188 69.3125 122.986 69.3125 128.906C69.3125 134.826 64.5136 139.625 58.5938 139.625C52.6739 139.625 47.875 134.826 47.875 128.906C47.875 122.986 52.6739 118.188 58.5938 118.188Z"
    fill="url(#paint4_linear_50_1327)" stroke="black" stroke-width="2"/>
  <path
    d="M58.5938 111.5C48.9946 111.5 41.1875 119.307 41.1875 128.906C41.1875 138.505 48.9946 146.312 58.5938 146.312C68.1929 146.312 76 138.505 76 128.906C76 119.307 68.1929 111.5 58.5938 111.5ZM106.664 85.7188C105.269 85.7188 103.845 85.8933 102.444 86.2686C98.2491 87.3923 94.7507 90.0916 92.5801 93.834C90.4069 97.5808 89.8329 101.956 90.9561 106.149C92.0798 110.345 94.7791 113.843 98.5215 116.014C101.02 117.463 103.796 118.187 106.617 118.188C108.037 118.188 109.437 118.013 110.837 117.638C115.032 116.514 118.531 113.815 120.701 110.072C122.874 106.325 123.448 101.95 122.325 97.7568C121.201 93.5616 118.502 90.0632 114.76 87.8926C112.261 86.4433 109.486 85.7188 106.664 85.7188ZM58.5938 55.25C47.7055 55.25 38.8438 64.1118 38.8438 75C38.8438 85.8882 47.7055 94.75 58.5938 94.75C69.482 94.75 78.3438 85.8882 78.3438 75C78.3438 64.1118 69.482 55.25 58.5938 55.25ZM106.617 31.8125C103.796 31.8125 101.02 32.537 98.5215 33.9863C94.7791 36.157 92.0798 39.6554 90.9561 43.8506C89.8329 48.0436 90.4069 52.4192 92.5801 56.166C94.7507 59.9084 98.2491 62.6077 102.444 63.7314C103.845 64.1067 105.269 64.2812 106.664 64.2812C109.486 64.2812 112.261 63.5567 114.76 62.1074C118.502 59.9368 121.201 56.4384 122.325 52.2432C123.448 48.0502 122.874 43.6745 120.701 39.9277C118.531 36.1853 115.032 33.486 110.837 32.3623C109.436 31.987 108.013 31.8125 106.617 31.8125ZM58.5938 3.6875C48.9946 3.6875 41.1875 11.4946 41.1875 21.0938C41.1875 30.6929 48.9946 38.5 58.5938 38.5C68.1929 38.5 76 30.6929 76 21.0938C76 11.4946 68.1929 3.6875 58.5938 3.6875ZM57.25 41.1523L56.3604 41.0527C46.3363 39.9363 38.5 31.4052 38.5 21.0938C38.5 10.021 47.521 1 58.5938 1C69.6665 1 78.6875 10.021 78.6875 21.0938C78.6875 31.4052 70.8512 39.9363 60.8271 41.0527L59.9375 41.1523V52.5859L60.8389 52.6748C67.4285 53.3248 73.1739 56.8673 76.835 61.9883L77.3604 62.7227L78.1445 62.2744L88.6445 56.2744L89.4014 55.8418L89.0762 55.0332C87.563 51.2726 87.2959 47.1351 88.3643 43.1504C89.6792 38.27 92.795 34.178 97.1777 31.6641L97.1816 31.6621C100.097 29.9706 103.322 29.125 106.617 29.125C108.27 29.125 109.915 29.3264 111.532 29.7695L111.537 29.7705C116.418 31.0854 120.51 34.2013 123.023 38.584L123.025 38.5869C125.564 42.9739 126.231 48.0677 124.917 52.9434C123.602 57.8238 120.486 61.9158 116.104 64.4297L116.1 64.4316C113.184 66.1232 109.959 66.9687 106.664 66.9688C105.034 66.9688 103.366 66.7672 101.749 66.3242L101.743 66.3232L101.34 66.21C97.192 65.002 93.6509 62.4704 91.1943 58.958L90.6709 58.209L89.8779 58.6641L79.4951 64.6172L78.7129 65.0654L79.0781 65.8896C80.3145 68.6771 81.0312 71.7506 81.0312 75C81.0312 78.2494 80.3145 81.3229 79.0781 84.1104L78.7129 84.9346L79.4951 85.3828L89.8779 91.3359L90.6709 91.791L91.1943 91.042C93.7301 87.4162 97.4215 84.8352 101.743 83.6768L101.749 83.6758C103.367 83.2326 105.011 83.0312 106.664 83.0312C109.959 83.0313 113.184 83.8768 116.1 85.5684L116.104 85.5703C120.486 88.0842 123.602 92.1762 124.917 97.0566C126.231 101.932 125.564 107.026 123.025 111.413L123.023 111.416C120.51 115.799 116.418 118.915 111.537 120.229L111.532 120.23C109.915 120.673 108.247 120.875 106.617 120.875C103.322 120.875 100.097 120.029 97.1816 118.338L97.1777 118.336L96.7705 118.096C92.7362 115.647 89.83 111.833 88.4922 107.305L88.3643 106.85C87.2959 102.865 87.563 98.7274 89.0762 94.9668L89.4014 94.1582L88.6445 93.7256L78.1445 87.7256L77.3604 87.2773L76.835 88.0117C73.1739 93.1327 67.4285 96.6752 60.8389 97.3252L59.9375 97.4141V108.848L60.8271 108.947C70.8512 110.064 78.6875 118.595 78.6875 128.906C78.6875 139.979 69.6665 149 58.5938 149C47.521 149 38.5 139.979 38.5 128.906C38.5 118.595 46.3363 110.064 56.3604 108.947L57.25 108.848V97.4141L56.3486 97.3252C45.0196 96.2035 36.1562 86.6218 36.1562 75C36.1562 63.3782 45.0196 53.7965 56.3486 52.6748L57.25 52.5859V41.1523Z"
    fill="url(#paint5_linear_50_1327)" stroke="black" stroke-width="2"/>
  <defs>
    <linearGradient id="paint0_linear_50_1327" x1="58.5937" y1="57.8461" x2="58.5937" y2="83.1281"
      gradientUnits="userSpaceOnUse">
      <stop stop-color="white"/>
      <stop offset="0.699" stop-color="white"/>
    </linearGradient>
    <linearGradient id="paint1_linear_50_1327" x1="58.5938" y1="6.28828" x2="58.5938" y2="35.7352"
      gradientUnits="userSpaceOnUse">
      <stop stop-color="white"/>
      <stop offset="0.699" stop-color="white"/>
    </linearGradient>
    <linearGradient id="paint2_linear_50_1327" x1="106.641" y1="34.7227" x2="106.641" y2="61.2234"
      gradientUnits="userSpaceOnUse">
      <stop stop-color="white"/>
      <stop offset="0.699" stop-color="white"/>
    </linearGradient>
    <linearGradient id="paint3_linear_50_1327" x1="106.641" y1="90.0328" x2="106.641" y2="115.39"
      gradientUnits="userSpaceOnUse">
      <stop stop-color="white"/>
      <stop offset="0.699" stop-color="white"/>
    </linearGradient>
    <linearGradient id="paint4_linear_50_1327" x1="58.5938" y1="114.788" x2="58.5938" y2="137.306"
      gradientUnits="userSpaceOnUse">
      <stop stop-color="white"/>
      <stop offset="0.699" stop-color="white"/>
    </linearGradient>
    <linearGradient id="paint5_linear_50_1327" x1="80.8664" y1="0" x2="80.8664" y2="150"
      gradientUnits="userSpaceOnUse">
      <stop/>
      <stop offset="1"/>
    </linearGradient>
  </defs>
</svg>
